HIERARCHY
ROOT Hips
{
 OFFSET 0.000000 0.000000 0.000000
 CHANNELS 6 Xposition Yposition Zposition Yrotation Xrotation Zrotation
 JOINT Chest
 {
  OFFSET 0.000000 9.581000 -0.001100
  CHANNELS 3 Yrotation Xrotation Zrotation
  JOINT Chest2
  {
   OFFSET 0.000000 9.561100 0.002200
   CHANNELS 3 Yrotation Xrotation Zrotation
   JOINT Chest3
   {
    OFFSET 0.000000 9.521100 0.000000
    CHANNELS 3 Yrotation Xrotation Zrotation
    JOINT Chest4
    {
     OFFSET 0.000000 9.511400 0.000000
     CHANNELS 3 Yrotation Xrotation Zrotation
     JOINT Neck
     {
      OFFSET 0.000000 14.375100 0.000000
      CHANNELS 3 Yrotation Xrotation Zrotation
      JOINT Head
      {
       OFFSET 0.000000 8.901200 0.004600
       CHANNELS 3 Yrotation Xrotation Zrotation
       End Site
       {
        OFFSET 0.000000 16.962200 0.002400
       }
      }
     }
     JOINT RightCollar
     {
      OFFSET -2.920100 9.518800 0.000000
      CHANNELS 3 Yrotation Xrotation Zrotation
      JOINT RightShoulder
      {
       OFFSET -13.664500 0.000000 0.000000
       CHANNELS 3 Yrotation Xrotation Zrotation
       JOINT RightElbow
       {
        OFFSET 0.000000 -29.999200 0.000000
        CHANNELS 3 Yrotation Xrotation Zrotation
        JOINT RightWrist
        {
         OFFSET 0.000000 -24.253600 0.000000
         CHANNELS 3 Yrotation Xrotation Zrotation
         End Site
         {
          OFFSET 0.000000 -17.918900 0.000000
         }
        }
       }
      }
     }
     JOINT LeftCollar
     {
      OFFSET 2.920100 9.518800 0.000000
      CHANNELS 3 Yrotation Xrotation Zrotation
      JOINT LeftShoulder
      {
       OFFSET 13.664500 0.000000 0.000000
       CHANNELS 3 Yrotation Xrotation Zrotation
       JOINT LeftElbow
       {
        OFFSET 0.000000 -29.999200 0.000000
        CHANNELS 3 Yrotation Xrotation Zrotation
        JOINT LeftWrist
        {
         OFFSET 0.000000 -24.253600 0.000000
         CHANNELS 3 Yrotation Xrotation Zrotation
         End Site
         {
          OFFSET 0.000000 -17.918900 0.000000
         }
        }
       }
      }
     }
    }
   }
  }
 }
 JOINT RightHip
 {
  OFFSET -7.797300 0.005300 0.000500
  CHANNELS 3 Yrotation Xrotation Zrotation
  JOINT RightKnee
  {
   OFFSET 0.000000 -40.663400 -0.000500
   CHANNELS 3 Yrotation Xrotation Zrotation
   JOINT RightAnkle
   {
    OFFSET 0.000000 -39.523700 -0.000900
    CHANNELS 3 Yrotation Xrotation Zrotation
    JOINT RightToe
    {
     OFFSET 0.000000 -6.418000 14.485300
     CHANNELS 3 Yrotation Xrotation Zrotation
     End Site
     {
      OFFSET 0.000000 -1.465200 6.326400
     }
    }
   }
  }
 }
 JOINT LeftHip
 {
  OFFSET 7.797300 0.005300 0.000500
  CHANNELS 3 Yrotation Xrotation Zrotation
  JOINT LeftKnee
  {
   OFFSET 0.000000 -40.663400 -0.000500
   CHANNELS 3 Yrotation Xrotation Zrotation
   JOINT LeftAnkle
   {
    OFFSET 0.000000 -39.523700 -0.000900
    CHANNELS 3 Yrotation Xrotation Zrotation
    JOINT LeftToe
    {
     OFFSET 0.000000 -6.418000 14.485300
     CHANNELS 3 Yrotation Xrotation Zrotation
     End Site
     {
      OFFSET 0.000000 -1.465200 6.326400
     }
    }
   }
  }
 }
}
MOTION
Frames: 15
Frame Time: 0.008333
0.000000 86.422400 0.000000 0.000000 -5.767877 0.000000 0.000000 11.653817 0.000000 0.000000 -5.885947 0.000000 0.000000 -0.000000 0.000000 0.000000 -0.000000 0.000000 0.000000 12.528835 0.000000 0.000000 0.711642 0.000000 0.000000 -0.000000 0.000000 0.000000 0.000000 -90.000000 0.000000 -2.309062 0.000000 0.000000 2.309062 0.000000 0.000000 -0.000000 0.000000 0.000000 -0.000000 90.000000 0.000000 -2.309062 0.000000 0.000000 2.309062 0.000000 0.000000 8.520406 0.000000 0.000000 1.905762 0.000000 -0.000000 -4.658285 0.000000 0.000000 -0.000000 0.000000 0.000000 8.520406 0.000000 0.000000 1.905762 0.000000 -0.000000 -4.658285 0.000000 0.000000 -0.000000 0.000000
-9.878170 126.754212 5.773335 164.508699 -37.929854 -2.202185 2.308038 21.382346 1.114197 0.264857 2.893911 0.092005 0.485999 4.670332 0.164372 1.821079 18.283169 0.842698 5.909174 17.821089 -3.404591 7.278001 -6.702753 -5.101761 -1.257529 -0.108142 1.192954 3.104708 -7.876158 -8.154170 92.843928 -70.913695 -68.678513 -0.416132 6.359742 -18.873718 -5.914071 -1.598577 2.007371 -4.865035 -16.492722 6.843668 -37.627641 -67.747564 24.268207 -23.289979 4.887207 17.761495 9.056444 -49.329114 3.805027 -61.236909 81.769830 -58.346441 11.315537 -16.869315 3.367871 0.001628 -0.068339 0.000720 -3.758371 -38.427013 -0.661464 56.032939 82.276975 50.676721 2.881783 -7.011545 2.575106 -0.031015 0.031123 -0.013748
-9.890827 126.758955 5.766731 164.581495 -37.994894 -2.155799 2.268157 21.415807 1.045254 0.301866 2.862159 0.100069 0.451631 4.696582 0.161301 1.833260 18.277301 0.849643 5.888627 17.821750 -3.389265 7.249566 -6.701667 -5.078695 -1.211079 -0.133492 1.200217 3.074884 -7.866097 -8.188043 92.563125 -70.912894 -68.355228 -0.452834 6.360896 -18.913255 -5.935727 -1.572551 2.004261 -4.863815 -16.523763 6.851803 -37.517477 -67.714072 24.146413 -23.289664 4.862722 17.742061 9.115801 -49.219291 3.680467 -62.390349 81.854450 -59.563084 11.300690 -17.233554 3.250323 -0.014150 -0.144882 -0.006253 -3.720231 -38.370012 -0.779234 56.007843 82.269697 50.642611 2.858150 -6.977252 2.572149 -0.011531 0.026128 -0.005111
-9.897897 126.764048 5.762470 164.681636 -38.063112 -2.160294 2.267133 21.413552 1.040812 0.256688 2.897116 0.091395 0.429226 4.714822 0.158393 1.871785 18.254331 0.857547 5.884486 17.794674 -3.379185 7.206057 -6.681942 -5.049107 -1.226917 -0.119537 1.208777 3.113212 -7.896832 -8.221212 92.259277 -70.923356 -68.046638 -0.477860 6.366547 -18.917319 -5.984487 -1.535669 2.007144 -4.845000 -16.555591 6.857032 -37.436709 -67.691300 24.056640 -23.283806 4.846655 17.727301 9.255058 -49.024437 3.523049 -63.226489 81.885944 -60.374634 11.259167 -17.801600 3.118624 -0.011170 -0.097944 -0.004940 -3.730938 -38.307753 -0.843672 56.130183 82.218139 50.722011 2.812171 -6.928327 2.612765 -0.027151 0.016110 -0.012033
-9.904196 126.765023 5.764757 164.735038 -38.093372 -2.149059 2.261891 21.411043 1.024775 0.218398 2.922411 0.083146 0.442360 4.703928 0.160805 1.914895 18.238196 0.864980 5.841100 17.806443 -3.364465 7.202868 -6.761079 -5.048841 -1.263450 -0.101882 1.221057 3.170801 -7.935694 -8.254632 91.950160 -70.932300 -67.750721 -0.500375 6.374168 -18.906753 -5.994388 -1.524574 2.000952 -4.893830 -16.543292 6.869968 -37.410210 -67.684364 24.026804 -23.256894 4.845289 17.738345 9.355222 -48.900174 3.411356 -64.132706 81.973224 -61.300518 11.212916 -18.300507 2.974940 -0.016303 -0.131331 -0.007206 -3.671964 -38.291558 -0.886244 56.052408 82.218819 50.643163 2.752894 -6.885015 2.635048 -0.004297 0.001749 -0.001904
-9.915447 126.763968 5.768639 164.738115 -38.107048 -2.079380 2.287051 21.393628 0.979628 0.259704 2.896558 0.092511 0.403508 4.727721 0.155684 1.893617 18.256896 0.864834 5.847022 17.780539 -3.361650 7.169921 -6.747337 -5.030088 -1.243812 -0.112311 1.226684 3.180894 -7.951734 -8.276133 91.726978 -70.939532 -67.550486 -0.506100 6.396276 -18.871478 -5.926548 -1.547632 1.979935 -4.964969 -16.549057 6.892137 -37.321838 -67.656178 23.928002 -23.241983 4.825666 17.728918 9.456958 -48.834759 3.296617 -65.176011 82.113839 -62.406634 11.141453 -18.637297 2.828926 -0.025271 -0.261762 -0.011135 -3.595880 -38.286477 -0.976777 56.014510 82.209381 50.599249 2.742953 -6.866316 2.618122 0.023247 -0.000641 0.010300
-9.916083 126.764911 5.773759 164.758685 -38.136270 -2.082997 2.324270 21.390326 1.001293 0.275623 2.888863 0.095518 0.393835 4.737139 0.155695 1.924496 18.248419 0.868370 5.806775 17.775719 -3.345619 7.134611 -6.736285 -5.007668 -1.278618 -0.097848 1.249078 3.149135 -7.942545 -8.283730 91.635661 -70.933279 -67.447520 -0.496965 6.426710 -18.838498 -5.960930 -1.520298 1.982379 -4.974922 -16.576222 6.904303 -37.201938 -67.633884 23.824603 -23.253024 4.788965 17.691061 9.524808 -48.717755 3.262818 -65.966768 82.204834 -63.220819 11.038196 -19.005429 2.697243 -0.019168 -0.258612 -0.008443 -3.595485 -38.259443 -0.988612 56.006483 82.195314 50.580472 2.738226 -6.864619 2.625459 0.023289 0.004779 0.010319
-9.918874 126.764106 5.780617 164.788578 -38.148040 -2.082522 2.349339 21.370589 1.009197 0.277834 2.889114 0.095698 0.440402 4.713815 0.162216 1.912896 18.263917 0.870930 5.764644 17.767958 -3.328996 7.105344 -6.823007 -5.012522 -1.321501 -0.080649 1.271914 3.175497 -7.972961 -8.305430 91.304038 -70.869089 -67.066559 -0.535937 6.416282 -18.883013 -5.997457 -1.487201 1.988333 -4.947250 -16.628649 6.909921 -37.119928 -67.604014 23.695339 -23.220360 4.776854 17.683855 9.572469 -48.618147 3.230015 -66.812951 82.269083 -64.099430 10.938258 -19.308925 2.581959 -0.008148 -0.238559 -0.003581 -3.577615 -38.250742 -1.006275 55.967844 82.164772 50.505625 2.720879 -6.843299 2.688329 -0.005564 0.004034 -0.002466
-9.910676 126.769326 5.783042 164.858488 -38.213381 -2.163561 2.366081 21.404933 1.078556 0.279946 2.890040 0.096103 0.459061 4.706929 0.163935 1.878205 18.284871 0.873191 5.769932 17.733732 -3.334627 7.070428 -6.812105 -4.986997 -1.312042 -0.084026 1.280673 3.245078 -8.038724 -8.348387 90.861481 -70.845532 -66.661940 -0.539579 6.432619 -18.875111 -5.985809 -1.474459 1.985709 -4.966069 -16.650968 6.911044 -37.061026 -67.586929 23.641123 -23.207633 4.768939 17.671262 9.507053 -48.418349 3.311175 -67.370458 82.279353 -64.690353 10.859428 -19.667520 2.486474 -0.006458 -0.120870 -0.002854 -3.637022 -38.179273 -0.965240 55.883818 82.164118 50.425044 2.719865 -6.856184 2.689059 0.001488 0.010877 0.000659
-9.911194 126.773581 5.783598 164.927737 -38.270899 -2.191410 2.358318 21.437288 1.090747 0.258567 2.903128 0.092098 0.473774 4.702297 0.166227 1.871954 18.289836 0.872999 5.773709 17.699156 -3.341184 7.039230 -6.803715 -4.963314 -1.253316 -0.090387 1.281772 3.228407 -8.071709 -8.367282 90.557395 -70.802488 -66.373564 -0.542977 6.449193 -18.869331 -5.970811 -1.461508 1.984519 -4.983855 -16.671193 6.909325 -36.998486 -67.570850 23.585832 -23.204386 4.754617 17.655218 9.505308 -48.245979 3.289920 -68.135601 82.312196 -65.484415 10.809308 -19.921252 2.403819 -0.007941 -0.094868 -0.003512 -3.662514 -38.118091 -0.983813 55.787408 82.152787 50.305540 2.711569 -6.856014 2.712714 0.000463 0.010511 0.000205
-9.912417 126.773938 5.788706 164.945784 -38.291369 -2.190905 2.364230 21.445990 1.092074 0.260597 2.902815 0.092250 0.462240 4.709300 0.164965 1.924207 18.276762 0.880755 5.773965 17.640972 -3.359856 6.983693 -6.849274 -4.952205 -1.295510 -0.076554 1.291139 3.263597 -8.099371 -8.379820 90.334171 -70.745449 -66.153453 -0.546219 6.466803 -18.864511 -5.982240 -1.443440 1.984453 -4.996906 -16.687400 6.907990 -36.939260 -67.557159 23.529217 -23.222368 4.727885 17.630796 9.562023 -48.128140 3.242041 -68.980749 82.364547 -66.346412 10.766605 -20.149707 2.335303 -0.012358 -0.081977 -0.005467 -3.661704 -38.093726 -0.992553 55.678591 82.138381 50.170690 2.704351 -6.857437 2.737164 -0.000806 0.015450 -0.000357
-9.914554 126.776108 5.790550 164.989344 -38.328242 -2.196054 2.376317 21.461982 1.102184 0.254721 2.905525 0.089153 0.464781 4.713619 0.165885 1.933942 18.283197 0.884980 5.734613 17.632432 -3.355701 6.969671 -6.905844 -4.971032 -1.332396 -0.071725 1.299218 3.295706 -8.120007 -8.387722 90.133610 -70.684167 -65.957273 -0.573527 6.451640 -18.881055 -6.011675 -1.435233 1.988747 -4.971646 -16.697325 6.897045 -36.901480 -67.548047 23.485208 -23.214864 4.700018 17.604359 9.620416 -47.986599 3.172431 -69.814663 82.422243 -67.182972 10.711596 -20.369775 2.279165 -0.016849 -0.069906 -0.007456 -3.678230 -38.057007 -1.013989 55.579252 82.128824 50.039587 2.706533 -6.852475 2.758762 -0.003440 0.012115 -0.001525
-9.915517 126.779983 5.789964 165.074245 -38.378619 -2.230024 2.345536 21.501269 1.109374 0.256792 2.905285 0.091147 0.466722 4.718257 0.166383 1.940944 18.290364 0.888246 5.698284 17.619917 -3.355772 6.955045 -6.938481 -4.980229 -1.302642 -0.088184 1.301525 3.260373 -8.118873 -8.387176 89.972413 -70.634985 -65.809400 -0.583744 6.447626 -18.887609 -6.035700 -1.434371 1.990209 -4.968476 -16.699752 6.890938 -36.849417 -67.543811 23.449896 -23.199481 4.692138 17.584198 9.645695 -47.825200 3.105049 -70.622098 82.471435 -67.980095 10.656685 -20.608413 2.235450 -0.009596 -0.036704 -0.004249 -3.736339 -38.009398 -1.013189 55.433302 82.134244 49.851740 2.694991 -6.829602 2.790624 0.001509 0.005524 0.000669
-9.916685 126.779555 5.794402 165.102302 -38.387187 -2.235566 2.329217 21.508394 1.102818 0.285446 2.900705 0.098379 0.467740 4.723277 0.167822 1.944464 18.298393 0.893594 5.689451 17.588719 -3.374328 6.915554 -6.954801 -4.962242 -1.300163 -0.102291 1.306814 3.236384 -8.117182 -8.389312 89.907879 -70.616878 -65.755175 -0.522421 6.546159 -18.814767 -5.984056 -1.444217 1.961937 -4.976040 -16.691489 6.886275 -36.900522 -67.549032 23.458819 -23.151863 4.694777 17.590353 9.714952 -47.701890 3.032522 -71.371576 82.499112 -68.709592 10.651063 -20.826724 2.210201 0.000272 -0.026972 0.000120 -3.751922 -38.003972 -1.005902 55.298091 82.106880 49.667024 2.677698 -6.794538 2.834859 -0.007695 0.002258 -0.003410
-9.915672 126.779894 5.797908 165.122852 -38.400560 -2.248213 2.342943 21.519646 1.120185 0.307301 2.910059 0.102443 0.448078 4.722666 0.164625 1.982401 18.339544 0.896971 5.639871 17.538737 -3.372576 6.897613 -6.982697 -4.959132 -1.317342 -0.159732 1.326725 3.207912 -8.112886 -8.389260 89.770515 -70.551690 -65.608497 -0.541192 6.542479 -18.815970 -6.019281 -1.494254 1.969900 -4.909324 -16.673975 6.861664 -36.981860 -67.560125 23.495238 -23.164814 4.671108 17.567111 9.772914 -47.570342 2.977614 -72.106105 82.505301 -69.419366 10.677059 -21.046636 2.202761 0.012241 -0.017149 0.005422 -3.766461 -37.993624 -0.986505 55.173356 82.103546 49.518847 2.671425 -6.776038 2.845840 -0.005869 0.001908 -0.002601
